<svg width="160" height="160" viewBox="0 0 160 160" fill="none" xmlns="http://www.w3.org/2000/svg" role="img" aria-label="Ada Technology">
  <rect x="6" y="6" width="148" height="148" rx="36" fill="white"/>
  <rect x="6.75" y="6.75" width="146.5" height="146.5" rx="35.25" stroke="#22D3EE" stroke-opacity=".28" stroke-width="1.5"/>
  <path d="M34 107L62.8 45H80.1L108 107H89.8L85.2 95.7H56.5L51.9 107H34ZM61.9 82.4H79.8L70.9 60.1L61.9 82.4Z" fill="url(#paint0_linear)"/>
  <path d="M92.5 45H130V60.2H119.6V107H102.9V60.2H92.5V45Z" fill="url(#paint1_linear)"/>
  <path d="M28 120C47 109.5 66.3 104.3 86 104.5C104.1 104.7 119.4 109.8 132 119.8" stroke="#14B8A6" stroke-width="7" stroke-linecap="round"/>
  <path d="M28 49C38.6 36.8 52.1 29.7 68.5 27.7" stroke="#3B82F6" stroke-width="5" stroke-linecap="round"/>
  <circle cx="31" cy="47" r="6" fill="#3B82F6"/>
  <circle cx="51" cy="34" r="5" fill="#22D3EE"/>
  <defs>
    <linearGradient id="paint0_linear" x1="34" y1="45" x2="98" y2="114" gradientUnits="userSpaceOnUse">
      <stop stop-color="#2563EB"/>
      <stop offset="1" stop-color="#22D3EE"/>
    </linearGradient>
    <linearGradient id="paint1_linear" x1="92" y1="45" x2="133" y2="107" gradientUnits="userSpaceOnUse">
      <stop stop-color="#14B8A6"/>
      <stop offset="1" stop-color="#22D3EE"/>
    </linearGradient>
  </defs>
</svg>
